<?xml version="1.0" encoding="UTF-8"?>
<svg id="Layer_1" xmlns="http://www.w3.org/2000/svg" version="1.1" viewBox="0 0 1000 1000">
  <!-- Generator: Adobe Illustrator 29.5.1, SVG Export Plug-In . SVG Version: 2.1.0 Build 141)  -->
  <defs>
    <style>
      .st0 {
        fill: #e0d5fc;
      }

      .st1 {
        fill: #fff;
      }
    </style>
  </defs>
  <g>
    <path class="st0" d="M501.5,990.6c-66,0-130.1-12.9-190.4-38.4-58.2-24.6-110.5-59.9-155.5-104.8-44.9-44.9-80.2-97.2-104.8-155.5-25.5-60.3-38.4-124.3-38.4-190.4s12.9-130.1,38.4-190.4c24.6-58.2,59.9-110.5,104.8-155.5,44.9-44.9,97.2-80.2,155.5-104.8,60.3-25.5,124.3-38.4,190.4-38.4s130.1,12.9,190.4,38.4c58.2,24.6,110.5,59.9,155.5,104.8,44.9,44.9,80.2,97.2,104.8,155.5,25.5,60.3,38.4,124.3,38.4,190.4s-12.9,130.1-38.4,190.4c-24.6,58.2-59.9,110.5-104.8,155.5-44.9,44.9-97.2,80.2-155.5,104.8-60.3,25.5-124.3,38.4-190.4,38.4Z"/>
    <path class="st1" d="M501.5,25c64.3,0,126.7,12.6,185.5,37.4,56.7,24,107.7,58.4,151.5,102.1,43.8,43.8,78.1,94.7,102.1,151.5,24.8,58.7,37.4,121.1,37.4,185.5s-12.6,126.7-37.4,185.5c-24,56.7-58.4,107.7-102.1,151.5-43.8,43.8-94.7,78.1-151.5,102.1-58.7,24.8-121.1,37.4-185.5,37.4s-126.7-12.6-185.5-37.4c-56.7-24-107.7-58.4-151.5-102.1-43.8-43.8-78.1-94.7-102.1-151.5-24.8-58.7-37.4-121.1-37.4-185.5s12.6-126.7,37.4-185.5c24-56.7,58.4-107.7,102.1-151.5,43.8-43.8,94.7-78.1,151.5-102.1,58.7-24.8,121.1-37.4,185.5-37.4M501.5,0C224.5,0,0,224.5,0,501.5s224.5,501.5,501.5,501.5,501.5-224.5,501.5-501.5S778.5,0,501.5,0h0Z"/>
  </g>
  <path d="M765.9,325h-71.3c-4.4,0-8.3,3-9.4,7.2l-67.8,239.7-62.2-213.2c-5.5-19.8-23.7-33.7-44.3-33.7h-22c-20.6,0-38.8,13.9-44.3,33.7l-62.2,213.2-67.8-239.7c-1.1-4.2-5-7.2-9.4-7.2h-71.3c-6.7,0-11.6,6.5-9.5,13l97.2,304.6c6.2,19.4,24.1,32.5,44.4,32.5h28.7c20.5,0,38.9-13.7,44.7-33.4l60.3-204,60.3,204c5.8,19.7,24.2,33.4,44.7,33.4h28.7c20.4,0,38.2-13,44.4-32.5l97.2-304.6c2.1-6.5-2.9-13-9.5-13Z"/>
</svg>